<svg width="494" height="248" viewBox="0 0 494 248" fill="none" xmlns="http://www.w3.org/2000/svg">
<path d="M39.7246 92.2695L41.1406 88.7539H53.1523L54.5684 92.2695H39.7246ZM36.9902 99.3008L38.3574 95.7852H55.8867L57.4004 99.3008H36.9902ZM34.2559 106.332L35.623 102.816H58.6699L60.1348 106.332H34.2559ZM5.69141 116H1.88281L33.8652 35.1406H37.6738L69.6074 116H65.8477L35.7695 39.877L5.69141 116ZM36.209 48.2266L38.2109 52.7188L13.2109 116H9.45117L36.209 48.2266ZM40.1152 57.5039L41.9707 62.3379L20.8281 116H17.0195L40.1152 57.5039ZM43.8262 67.1719L45.6816 72.1035L28.3477 116H24.5879L43.8262 67.1719ZM92.3125 116H88.5039L56.5703 35.1406H60.3301L92.3125 116ZM52.7617 35.1406L84.7441 116H80.9844L49.002 35.1406H52.7617ZM45.1934 35.1406L77.1758 116H73.3672L41.4336 35.1406H45.1934ZM155.887 77.084L152.371 71.2734V35.1406H155.887V77.084ZM162.918 88.6074L159.402 82.6992V35.1406H162.918V88.6074ZM169.949 100.277L166.434 94.3203V35.1406H169.949V100.277ZM119.559 74.0566L123.074 79.8672V116H119.559V74.0566ZM112.527 62.5332L116.043 68.4414V116H112.527V62.5332ZM105.496 50.8633L109.012 56.8203V116H105.496V50.8633ZM106.717 35.1406H110.818L160.525 116H156.424L106.717 35.1406ZM115.018 35.1406H119.168L168.826 116H164.627L115.018 35.1406ZM123.27 35.1406H127.371L173.465 110.287V35.1406H176.98V116C176.98 116 175.597 116 172.83 116L123.27 35.1406ZM101.98 40.8535V116H98.4648V35.1406C98.4648 35.1406 99.8646 35.1406 102.664 35.1406L152.225 116H148.172L101.98 40.8535ZM207.352 94.9062V56.2344C207.352 56.2344 215.343 56.2344 231.326 56.2344C235.2 56.2344 238.52 58.1387 241.287 61.9473C244.087 65.7233 245.486 70.2643 245.486 75.5703C245.486 80.9089 244.087 85.4661 241.287 89.2422C238.52 93.0182 235.2 94.9062 231.326 94.9062H207.352ZM210.867 91.3906H231.326C234.223 91.3906 236.697 89.8444 238.748 86.752C240.831 83.6595 241.873 79.9323 241.873 75.5703C241.873 71.1758 240.831 67.4486 238.748 64.3887C236.697 61.2962 234.223 59.75 231.326 59.75H210.867V91.3906ZM203.836 98.4219H231.326C236.176 98.4219 240.343 96.1921 243.826 91.7324C247.342 87.2402 249.1 81.8529 249.1 75.5703C249.1 71.4362 248.286 67.6113 246.658 64.0957C245.063 60.5801 242.898 57.8132 240.164 55.7949C237.462 53.7441 234.516 52.7188 231.326 52.7188H203.836V98.4219ZM200.32 101.938V49.2031H231.326C235.135 49.2031 238.683 50.375 241.971 52.7188C245.258 55.0625 247.863 58.2689 249.783 62.3379C251.736 66.3743 252.713 70.7852 252.713 75.5703C252.713 80.3229 251.736 84.7337 249.783 88.8027C247.863 92.8717 245.258 96.0781 241.971 98.4219C238.683 100.766 235.135 101.938 231.326 101.938H200.32ZM196.805 105.453H231.326C235.786 105.453 239.92 104.118 243.729 101.449C247.57 98.7799 250.63 95.1504 252.908 90.5605C255.187 85.9707 256.326 80.974 256.326 75.5703C256.326 70.1992 255.187 65.2188 252.908 60.6289C250.63 56.0065 247.57 52.3607 243.729 49.6914C239.887 47.0221 235.753 45.6875 231.326 45.6875H196.805V105.453ZM193.289 108.969V42.1719H231.326C236.404 42.1719 241.141 43.6693 245.535 46.6641C249.93 49.6263 253.429 53.679 256.033 58.8223C258.637 63.9655 259.939 69.5482 259.939 75.5703C259.939 81.5924 258.637 87.1751 256.033 92.3184C253.429 97.4616 249.93 101.531 245.535 104.525C241.141 107.488 236.404 108.969 231.326 108.969H193.289ZM189.773 112.484H231.326C235.59 112.484 239.708 111.508 243.68 109.555C247.651 107.602 251.085 104.981 253.982 101.693C256.88 98.4056 259.191 94.4831 260.916 89.9258C262.674 85.3359 263.553 80.5508 263.553 75.5703C263.553 70.5898 262.674 65.821 260.916 61.2637C259.191 56.7064 256.88 52.7839 253.982 49.4961C251.085 46.1758 247.651 43.5391 243.68 41.5859C239.708 39.6328 235.59 38.6562 231.326 38.6562H189.773V112.484ZM231.326 116H186.258V35.1406H231.326C237.674 35.1406 243.598 36.9473 249.1 40.5605C254.601 44.1738 258.979 49.0892 262.234 55.3066C265.522 61.5241 267.166 68.2786 267.166 75.5703C267.166 81.0391 266.189 86.2799 264.236 91.293C262.316 96.2734 259.744 100.57 256.521 104.184C253.299 107.797 249.474 110.678 245.047 112.826C240.652 114.942 236.079 116 231.326 116ZM301.492 75.7656H322.684C325.906 75.7656 328.624 74.724 330.838 72.6406C333.084 70.5573 334.207 67.5951 334.207 63.7539C334.207 60.9219 333.035 58.3828 330.691 56.1367C328.348 53.8581 325.678 52.7188 322.684 52.7188H292.508V116H288.992V49.2031H322.684C326.655 49.2031 330.154 50.6842 333.182 53.6465C336.209 56.5762 337.723 59.9453 337.723 63.7539C337.723 68.4414 336.258 72.2012 333.328 75.0332C330.398 77.8652 326.85 79.2812 322.684 79.2812H301.492V75.7656ZM301.492 82.7969H322.684C327.762 82.7969 332.124 81.0228 335.77 77.4746C339.415 73.8939 341.238 69.3203 341.238 63.7539C341.238 58.9688 339.367 54.7695 335.623 51.1562C331.912 47.5104 327.599 45.6875 322.684 45.6875H285.477V116H281.961V42.1719H322.684C326.557 42.1719 330.187 43.1647 333.572 45.1504C336.99 47.1361 339.708 49.8053 341.727 53.1582C343.745 56.4785 344.754 60.0104 344.754 63.7539C344.754 70.1667 342.573 75.5378 338.211 79.8672C333.882 84.1641 328.706 86.3125 322.684 86.3125H301.492V82.7969ZM301.492 89.8281H322.684C327.241 89.8281 331.473 88.7051 335.379 86.459C339.285 84.2129 342.41 81.0879 344.754 77.084C347.098 73.0475 348.27 68.6042 348.27 63.7539C348.27 59.3594 347.098 55.2415 344.754 51.4004C342.443 47.5267 339.318 44.4342 335.379 42.123C331.44 39.8118 327.208 38.6562 322.684 38.6562H278.445V116H274.93V35.1406H322.684C327.794 35.1406 332.596 36.459 337.088 39.0957C341.58 41.6999 345.145 45.2155 347.781 49.6426C350.451 54.0371 351.785 58.7409 351.785 63.7539C351.785 69.5482 350.532 74.6426 348.025 79.0371C345.551 83.4316 342.182 86.8659 337.918 89.3398L347 116H343.289L334.598 91C333.296 91.5208 332.303 91.8789 331.619 92.0742L339.773 116H336.062L328.104 92.9043C327.811 92.9694 326.769 93.0833 324.979 93.2461L332.547 116H328.836L321.365 93.3438H318.191L325.32 116H321.609L314.432 93.3438H301.492V89.8281ZM299.539 116H296.023V56.2344H322.684C324.865 56.2344 326.736 56.9831 328.299 58.4805C329.894 59.9453 330.691 61.7031 330.691 63.7539C330.691 69.418 328.022 72.25 322.684 72.25H301.492V68.7344H322.684C324.083 68.7344 325.174 68.3763 325.955 67.6602C326.769 66.9115 327.176 65.6094 327.176 63.7539C327.176 62.6146 326.736 61.6706 325.857 60.9219C325.011 60.1406 323.953 59.75 322.684 59.75H299.539V116ZM376.883 116H373.367V35.1406H376.883V116ZM369.852 116H366.336V35.1406H369.852V116ZM362.82 116H359.305V35.1406H362.82V116ZM383.914 98.4219H421.316V101.938H383.914V105.453H421.316V108.969H383.914V112.484H421.316V116H380.398V35.1406H421.316V38.6562H383.914V42.1719H421.316V45.6875H383.914V49.2031H421.316V52.7188H383.914V66.7812H403.104V70.2969H383.914V73.8125H403.104V77.3281H383.914V80.8438H403.104V84.3594H383.914V98.4219ZM462.674 66.7812H456.766C454.259 66.7812 452.452 66.1465 451.346 64.877C450.239 63.5749 449.686 61.8659 449.686 59.75C449.686 55.0625 453.185 52.7188 460.184 52.7188C466.759 52.7188 471.707 53.6953 475.027 55.6484L472.195 57.7969C469.917 56.7552 465.913 56.2344 460.184 56.2344C457.384 56.2344 455.496 56.5436 454.52 57.1621C453.576 57.7806 453.104 58.6432 453.104 59.75C453.104 60.8568 453.364 61.7194 453.885 62.3379C454.406 62.9564 455.366 63.2656 456.766 63.2656H462.82C467.215 63.2656 471.17 64.0143 474.686 65.5117C478.234 67.0091 481.147 69.0599 483.426 71.6641C485.704 74.2357 487.446 77.2142 488.65 80.5996C489.855 83.9525 490.457 87.5495 490.457 91.3906C490.457 94.5156 490.018 97.4779 489.139 100.277C488.26 103.077 486.925 105.648 485.135 107.992C483.377 110.336 481.245 112.37 478.738 114.096C476.264 115.788 473.302 117.107 469.852 118.051C466.434 119.027 462.723 119.516 458.719 119.516C452.436 119.516 446.544 118.555 441.043 116.635C435.574 114.747 431.017 112.094 427.371 108.676L430.203 106.576C433.523 109.571 437.674 111.898 442.654 113.559C447.667 115.186 453.022 116 458.719 116C463.178 116 467.199 115.365 470.779 114.096C474.393 112.794 477.355 111.02 479.666 108.773C482.01 106.527 483.8 103.923 485.037 100.961C486.307 97.9987 486.941 94.8086 486.941 91.3906C486.941 86.8659 486.03 82.7806 484.207 79.1348C482.384 75.4564 479.601 72.4779 475.857 70.1992C472.146 67.9206 467.752 66.7812 462.674 66.7812ZM456.766 70.2969H462.332C468.94 70.2969 474.1 72.3151 477.811 76.3516C481.554 80.388 483.426 85.401 483.426 91.3906C483.426 97.4779 481.261 102.523 476.932 106.527C472.602 110.499 466.531 112.484 458.719 112.484C453.51 112.484 448.644 111.768 444.119 110.336C439.594 108.904 435.835 106.885 432.84 104.281L435.574 102.084C438.243 104.265 441.596 105.958 445.633 107.162C449.702 108.367 454.064 108.969 458.719 108.969C465.587 108.969 470.828 107.325 474.441 104.037C478.087 100.749 479.91 96.5339 479.91 91.3906C479.91 86.3125 478.38 82.1133 475.32 78.793C472.293 75.4727 467.947 73.8125 462.283 73.8125H456.766C452.013 73.8125 448.449 72.5104 446.072 69.9062C443.696 67.3021 442.508 63.9167 442.508 59.75C442.508 55.5833 443.973 52.1979 446.902 49.5938C449.865 46.9896 454.292 45.6875 460.184 45.6875C464.318 45.6875 468.159 46.1758 471.707 47.1523C475.255 48.0964 478.185 49.4635 480.496 51.2539L477.713 53.4023C473.644 50.6029 467.801 49.2031 460.184 49.2031C455.268 49.2031 451.671 50.1797 449.393 52.1328C447.146 54.0534 446.023 56.5924 446.023 59.75C446.023 62.9401 446.854 65.4954 448.514 67.416C450.206 69.3366 452.957 70.2969 456.766 70.2969ZM456.766 77.3281H462.137C466.889 77.3281 470.454 78.6465 472.83 81.2832C475.206 83.9199 476.395 87.2891 476.395 91.3906C476.395 95.5573 474.913 98.9427 471.951 101.547C469.021 104.151 464.611 105.453 458.719 105.453C454.585 105.453 450.727 104.981 447.146 104.037C443.598 103.061 440.669 101.677 438.357 99.8867L441.141 97.7383C445.21 100.538 451.069 101.938 458.719 101.938C463.634 101.938 467.215 100.977 469.461 99.0566C471.74 97.1035 472.879 94.5482 472.879 91.3906C472.879 88.2331 472.033 85.694 470.34 83.7734C468.647 81.8203 465.896 80.8438 462.088 80.8438H456.766C450.092 80.8438 444.868 78.8581 441.092 74.8867C437.348 70.8828 435.477 65.8372 435.477 59.75C435.477 53.6628 437.641 48.6335 441.971 44.6621C446.3 40.6582 452.371 38.6562 460.184 38.6562C465.392 38.6562 470.242 39.3724 474.734 40.8047C479.259 42.237 483.019 44.2552 486.014 46.8594L483.279 49.0566C480.61 46.8757 477.257 45.1829 473.221 43.9785C469.184 42.7741 464.839 42.1719 460.184 42.1719C453.315 42.1719 448.058 43.8158 444.412 47.1035C440.799 50.3913 438.992 54.6068 438.992 59.75C438.992 64.8607 440.522 69.0762 443.582 72.3965C446.642 75.6842 451.036 77.3281 456.766 77.3281ZM456.766 84.3594H462.137C464.643 84.3594 466.45 85.0104 467.557 86.3125C468.663 87.6146 469.217 89.3073 469.217 91.3906C469.217 96.0781 465.717 98.4219 458.719 98.4219C452.111 98.4219 447.146 97.4453 443.826 95.4922L446.658 93.3438C448.937 94.3854 452.957 94.9062 458.719 94.9062C461.518 94.9062 463.39 94.597 464.334 93.9785C465.311 93.36 465.799 92.4974 465.799 91.3906C465.799 90.3164 465.522 89.4701 464.969 88.8516C464.448 88.2005 463.471 87.875 462.039 87.875H456.766C452.273 87.875 448.204 87.1426 444.559 85.6777C440.945 84.2129 437.967 82.1947 435.623 79.623C433.312 77.0514 431.538 74.0729 430.301 70.6875C429.064 67.3021 428.445 63.6562 428.445 59.75C428.445 56.625 428.885 53.6628 429.764 50.8633C430.643 48.0638 431.961 45.4922 433.719 43.1484C435.509 40.8047 437.641 38.7865 440.115 37.0938C442.622 35.3685 445.584 34.0339 449.002 33.0898C452.452 32.1133 456.18 31.625 460.184 31.625C466.466 31.625 472.342 32.5853 477.811 34.5059C483.279 36.3939 487.837 39.0469 491.482 42.4648L488.65 44.5645C485.33 41.5697 481.18 39.2585 476.199 37.6309C471.219 35.9707 465.88 35.1406 460.184 35.1406C455.724 35.1406 451.688 35.7917 448.074 37.0938C444.493 38.3633 441.531 40.1211 439.188 42.3672C436.876 44.6133 435.086 47.2174 433.816 50.1797C432.579 53.1419 431.961 56.332 431.961 59.75C431.961 64.3398 432.889 68.474 434.744 72.1523C436.6 75.8307 439.432 78.793 443.24 81.0391C447.049 83.2526 451.557 84.3594 456.766 84.3594Z" fill="black"/>
<path d="M194.046 125.24C194.046 124.68 194.16 124.19 194.386 123.77C194.613 123.343 194.923 123.013 195.316 122.78C195.716 122.547 196.163 122.43 196.656 122.43C197.083 122.43 197.48 122.53 197.846 122.73C198.213 122.923 198.493 123.18 198.686 123.5V120.6H199.606V128H198.686V126.97C198.506 127.297 198.24 127.567 197.886 127.78C197.533 127.987 197.12 128.09 196.646 128.09C196.16 128.09 195.716 127.97 195.316 127.73C194.923 127.49 194.613 127.153 194.386 126.72C194.16 126.287 194.046 125.793 194.046 125.24ZM198.686 125.25C198.686 124.837 198.603 124.477 198.436 124.17C198.27 123.863 198.043 123.63 197.756 123.47C197.476 123.303 197.166 123.22 196.826 123.22C196.486 123.22 196.176 123.3 195.896 123.46C195.616 123.62 195.393 123.853 195.226 124.16C195.06 124.467 194.976 124.827 194.976 125.24C194.976 125.66 195.06 126.027 195.226 126.34C195.393 126.647 195.616 126.883 195.896 127.05C196.176 127.21 196.486 127.29 196.826 127.29C197.166 127.29 197.476 127.21 197.756 127.05C198.043 126.883 198.27 126.647 198.436 126.34C198.603 126.027 198.686 125.663 198.686 125.25ZM206.144 125.05C206.144 125.223 206.134 125.407 206.114 125.6H201.734C201.767 126.14 201.951 126.563 202.284 126.87C202.624 127.17 203.034 127.32 203.514 127.32C203.907 127.32 204.234 127.23 204.494 127.05C204.761 126.863 204.947 126.617 205.054 126.31H206.034C205.887 126.837 205.594 127.267 205.154 127.6C204.714 127.927 204.167 128.09 203.514 128.09C202.994 128.09 202.527 127.973 202.114 127.74C201.707 127.507 201.387 127.177 201.154 126.75C200.921 126.317 200.804 125.817 200.804 125.25C200.804 124.683 200.917 124.187 201.144 123.76C201.371 123.333 201.687 123.007 202.094 122.78C202.507 122.547 202.981 122.43 203.514 122.43C204.034 122.43 204.494 122.543 204.894 122.77C205.294 122.997 205.601 123.31 205.814 123.71C206.034 124.103 206.144 124.55 206.144 125.05ZM205.204 124.86C205.204 124.513 205.127 124.217 204.974 123.97C204.821 123.717 204.611 123.527 204.344 123.4C204.084 123.267 203.794 123.2 203.474 123.2C203.014 123.2 202.621 123.347 202.294 123.64C201.974 123.933 201.791 124.34 201.744 124.86H205.204ZM209.285 128.09C208.865 128.09 208.489 128.02 208.155 127.88C207.822 127.733 207.559 127.533 207.365 127.28C207.172 127.02 207.065 126.723 207.045 126.39H207.985C208.012 126.663 208.139 126.887 208.365 127.06C208.599 127.233 208.902 127.32 209.275 127.32C209.622 127.32 209.895 127.243 210.095 127.09C210.295 126.937 210.395 126.743 210.395 126.51C210.395 126.27 210.289 126.093 210.075 125.98C209.862 125.86 209.532 125.743 209.085 125.63C208.679 125.523 208.345 125.417 208.085 125.31C207.832 125.197 207.612 125.033 207.425 124.82C207.245 124.6 207.155 124.313 207.155 123.96C207.155 123.68 207.239 123.423 207.405 123.19C207.572 122.957 207.809 122.773 208.115 122.64C208.422 122.5 208.772 122.43 209.165 122.43C209.772 122.43 210.262 122.583 210.635 122.89C211.009 123.197 211.209 123.617 211.235 124.15H210.325C210.305 123.863 210.189 123.633 209.975 123.46C209.769 123.287 209.489 123.2 209.135 123.2C208.809 123.2 208.549 123.27 208.355 123.41C208.162 123.55 208.065 123.733 208.065 123.96C208.065 124.14 208.122 124.29 208.235 124.41C208.355 124.523 208.502 124.617 208.675 124.69C208.855 124.757 209.102 124.833 209.415 124.92C209.809 125.027 210.129 125.133 210.375 125.24C210.622 125.34 210.832 125.493 211.005 125.7C211.185 125.907 211.279 126.177 211.285 126.51C211.285 126.81 211.202 127.08 211.035 127.32C210.869 127.56 210.632 127.75 210.325 127.89C210.025 128.023 209.679 128.09 209.285 128.09ZM213.04 121.63C212.866 121.63 212.72 121.57 212.6 121.45C212.48 121.33 212.42 121.183 212.42 121.01C212.42 120.837 212.48 120.69 212.6 120.57C212.72 120.45 212.866 120.39 213.04 120.39C213.206 120.39 213.346 120.45 213.46 120.57C213.58 120.69 213.64 120.837 213.64 121.01C213.64 121.183 213.58 121.33 213.46 121.45C213.346 121.57 213.206 121.63 213.04 121.63ZM213.48 122.52V128H212.57V122.52H213.48ZM217.291 122.43C217.764 122.43 218.177 122.533 218.531 122.74C218.891 122.947 219.157 123.207 219.331 123.52V122.52H220.251V128.12C220.251 128.62 220.144 129.063 219.931 129.45C219.717 129.843 219.411 130.15 219.011 130.37C218.617 130.59 218.157 130.7 217.631 130.7C216.911 130.7 216.311 130.53 215.831 130.19C215.351 129.85 215.067 129.387 214.981 128.8H215.881C215.981 129.133 216.187 129.4 216.501 129.6C216.814 129.807 217.191 129.91 217.631 129.91C218.131 129.91 218.537 129.753 218.851 129.44C219.171 129.127 219.331 128.687 219.331 128.12V126.97C219.151 127.29 218.884 127.557 218.531 127.77C218.177 127.983 217.764 128.09 217.291 128.09C216.804 128.09 216.361 127.97 215.961 127.73C215.567 127.49 215.257 127.153 215.031 126.72C214.804 126.287 214.691 125.793 214.691 125.24C214.691 124.68 214.804 124.19 215.031 123.77C215.257 123.343 215.567 123.013 215.961 122.78C216.361 122.547 216.804 122.43 217.291 122.43ZM219.331 125.25C219.331 124.837 219.247 124.477 219.081 124.17C218.914 123.863 218.687 123.63 218.401 123.47C218.121 123.303 217.811 123.22 217.471 123.22C217.131 123.22 216.821 123.3 216.541 123.46C216.261 123.62 216.037 123.853 215.871 124.16C215.704 124.467 215.621 124.827 215.621 125.24C215.621 125.66 215.704 126.027 215.871 126.34C216.037 126.647 216.261 126.883 216.541 127.05C216.821 127.21 217.131 127.29 217.471 127.29C217.811 127.29 218.121 127.21 218.401 127.05C218.687 126.883 218.914 126.647 219.081 126.34C219.247 126.027 219.331 125.663 219.331 125.25ZM224.459 122.42C225.125 122.42 225.665 122.623 226.079 123.03C226.492 123.43 226.699 124.01 226.699 124.77V128H225.799V124.9C225.799 124.353 225.662 123.937 225.389 123.65C225.115 123.357 224.742 123.21 224.269 123.21C223.789 123.21 223.405 123.36 223.119 123.66C222.839 123.96 222.699 124.397 222.699 124.97V128H221.789V122.52H222.699V123.3C222.879 123.02 223.122 122.803 223.429 122.65C223.742 122.497 224.085 122.42 224.459 122.42ZM233.185 125.05C233.185 125.223 233.175 125.407 233.155 125.6H228.775C228.808 126.14 228.992 126.563 229.325 126.87C229.665 127.17 230.075 127.32 230.555 127.32C230.948 127.32 231.275 127.23 231.535 127.05C231.802 126.863 231.988 126.617 232.095 126.31H233.075C232.928 126.837 232.635 127.267 232.195 127.6C231.755 127.927 231.208 128.09 230.555 128.09C230.035 128.09 229.568 127.973 229.155 127.74C228.748 127.507 228.428 127.177 228.195 126.75C227.962 126.317 227.845 125.817 227.845 125.25C227.845 124.683 227.958 124.187 228.185 123.76C228.412 123.333 228.728 123.007 229.135 122.78C229.548 122.547 230.022 122.43 230.555 122.43C231.075 122.43 231.535 122.543 231.935 122.77C232.335 122.997 232.642 123.31 232.855 123.71C233.075 124.103 233.185 124.55 233.185 125.05ZM232.245 124.86C232.245 124.513 232.168 124.217 232.015 123.97C231.862 123.717 231.652 123.527 231.385 123.4C231.125 123.267 230.835 123.2 230.515 123.2C230.055 123.2 229.662 123.347 229.335 123.64C229.015 123.933 228.832 124.34 228.785 124.86H232.245ZM235.296 123.41C235.456 123.097 235.683 122.853 235.976 122.68C236.276 122.507 236.64 122.42 237.066 122.42V123.36H236.826C235.806 123.36 235.296 123.913 235.296 125.02V128H234.386V122.52H235.296V123.41ZM246.133 128L245.223 127.08C244.883 127.433 244.519 127.697 244.133 127.87C243.746 128.037 243.309 128.12 242.823 128.12C242.343 128.12 241.916 128.033 241.543 127.86C241.176 127.687 240.889 127.44 240.683 127.12C240.483 126.8 240.383 126.427 240.383 126C240.383 125.513 240.519 125.087 240.793 124.72C241.073 124.347 241.483 124.053 242.023 123.84C241.809 123.587 241.656 123.353 241.563 123.14C241.469 122.927 241.423 122.693 241.423 122.44C241.423 122.147 241.496 121.883 241.643 121.65C241.796 121.41 242.013 121.223 242.293 121.09C242.573 120.957 242.896 120.89 243.263 120.89C243.623 120.89 243.936 120.96 244.203 121.1C244.469 121.24 244.669 121.437 244.803 121.69C244.936 121.937 244.996 122.213 244.983 122.52H244.073C244.079 122.247 244.003 122.033 243.843 121.88C243.683 121.72 243.476 121.64 243.223 121.64C242.956 121.64 242.739 121.717 242.573 121.87C242.413 122.017 242.333 122.207 242.333 122.44C242.333 122.64 242.386 122.833 242.493 123.02C242.606 123.207 242.793 123.437 243.053 123.71L245.133 125.8L245.313 125.52L245.993 124.38H246.973L246.153 125.8C246.039 126 245.906 126.21 245.753 126.43L247.323 128H246.133ZM242.823 127.34C243.183 127.34 243.506 127.27 243.793 127.13C244.086 126.99 244.363 126.773 244.623 126.48L242.573 124.42C241.719 124.747 241.293 125.263 241.293 125.97C241.293 126.363 241.433 126.69 241.713 126.95C241.999 127.21 242.369 127.34 242.823 127.34ZM250.501 125.24C250.501 124.68 250.615 124.19 250.841 123.77C251.068 123.343 251.378 123.013 251.771 122.78C252.171 122.547 252.618 122.43 253.111 122.43C253.538 122.43 253.935 122.53 254.301 122.73C254.668 122.923 254.948 123.18 255.141 123.5V120.6H256.061V128H255.141V126.97C254.961 127.297 254.695 127.567 254.341 127.78C253.988 127.987 253.575 128.09 253.101 128.09C252.615 128.09 252.171 127.97 251.771 127.73C251.378 127.49 251.068 127.153 250.841 126.72C250.615 126.287 250.501 125.793 250.501 125.24ZM255.141 125.25C255.141 124.837 255.058 124.477 254.891 124.17C254.725 123.863 254.498 123.63 254.211 123.47C253.931 123.303 253.621 123.22 253.281 123.22C252.941 123.22 252.631 123.3 252.351 123.46C252.071 123.62 251.848 123.853 251.681 124.16C251.515 124.467 251.431 124.827 251.431 125.24C251.431 125.66 251.515 126.027 251.681 126.34C251.848 126.647 252.071 126.883 252.351 127.05C252.631 127.21 252.941 127.29 253.281 127.29C253.621 127.29 253.931 127.21 254.211 127.05C254.498 126.883 254.725 126.647 254.891 126.34C255.058 126.027 255.141 125.663 255.141 125.25ZM262.599 125.05C262.599 125.223 262.589 125.407 262.569 125.6H258.189C258.222 126.14 258.406 126.563 258.739 126.87C259.079 127.17 259.489 127.32 259.969 127.32C260.362 127.32 260.689 127.23 260.949 127.05C261.216 126.863 261.402 126.617 261.509 126.31H262.489C262.342 126.837 262.049 127.267 261.609 127.6C261.169 127.927 260.622 128.09 259.969 128.09C259.449 128.09 258.982 127.973 258.569 127.74C258.162 127.507 257.842 127.177 257.609 126.75C257.376 126.317 257.259 125.817 257.259 125.25C257.259 124.683 257.372 124.187 257.599 123.76C257.826 123.333 258.142 123.007 258.549 122.78C258.962 122.547 259.436 122.43 259.969 122.43C260.489 122.43 260.949 122.543 261.349 122.77C261.749 122.997 262.056 123.31 262.269 123.71C262.489 124.103 262.599 124.55 262.599 125.05ZM261.659 124.86C261.659 124.513 261.582 124.217 261.429 123.97C261.276 123.717 261.066 123.527 260.799 123.4C260.539 123.267 260.249 123.2 259.929 123.2C259.469 123.2 259.076 123.347 258.749 123.64C258.429 123.933 258.246 124.34 258.199 124.86H261.659ZM265.84 127.16L267.54 122.52H268.51L266.36 128H265.3L263.15 122.52H264.13L265.84 127.16ZM274.406 125.05C274.406 125.223 274.396 125.407 274.376 125.6H269.996C270.029 126.14 270.212 126.563 270.546 126.87C270.886 127.17 271.296 127.32 271.776 127.32C272.169 127.32 272.496 127.23 272.756 127.05C273.022 126.863 273.209 126.617 273.316 126.31H274.296C274.149 126.837 273.856 127.267 273.416 127.6C272.976 127.927 272.429 128.09 271.776 128.09C271.256 128.09 270.789 127.973 270.376 127.74C269.969 127.507 269.649 127.177 269.416 126.75C269.182 126.317 269.066 125.817 269.066 125.25C269.066 124.683 269.179 124.187 269.406 123.76C269.632 123.333 269.949 123.007 270.356 122.78C270.769 122.547 271.242 122.43 271.776 122.43C272.296 122.43 272.756 122.543 273.156 122.77C273.556 122.997 273.862 123.31 274.076 123.71C274.296 124.103 274.406 124.55 274.406 125.05ZM273.466 124.86C273.466 124.513 273.389 124.217 273.236 123.97C273.082 123.717 272.872 123.527 272.606 123.4C272.346 123.267 272.056 123.2 271.736 123.2C271.276 123.2 270.882 123.347 270.556 123.64C270.236 123.933 270.052 124.34 270.006 124.86H273.466ZM276.517 120.6V128H275.607V120.6H276.517ZM280.458 128.09C279.945 128.09 279.478 127.973 279.058 127.74C278.645 127.507 278.318 127.177 278.078 126.75C277.845 126.317 277.728 125.817 277.728 125.25C277.728 124.69 277.848 124.197 278.088 123.77C278.335 123.337 278.668 123.007 279.088 122.78C279.508 122.547 279.978 122.43 280.498 122.43C281.018 122.43 281.488 122.547 281.908 122.78C282.328 123.007 282.658 123.333 282.898 123.76C283.145 124.187 283.268 124.683 283.268 125.25C283.268 125.817 283.141 126.317 282.888 126.75C282.641 127.177 282.305 127.507 281.878 127.74C281.451 127.973 280.978 128.09 280.458 128.09ZM280.458 127.29C280.785 127.29 281.091 127.213 281.378 127.06C281.665 126.907 281.895 126.677 282.068 126.37C282.248 126.063 282.338 125.69 282.338 125.25C282.338 124.81 282.251 124.437 282.078 124.13C281.905 123.823 281.678 123.597 281.398 123.45C281.118 123.297 280.815 123.22 280.488 123.22C280.155 123.22 279.848 123.297 279.568 123.45C279.295 123.597 279.075 123.823 278.908 124.13C278.741 124.437 278.658 124.81 278.658 125.25C278.658 125.697 278.738 126.073 278.898 126.38C279.065 126.687 279.285 126.917 279.558 127.07C279.831 127.217 280.131 127.29 280.458 127.29ZM285.374 123.53C285.554 123.217 285.821 122.957 286.174 122.75C286.534 122.537 286.951 122.43 287.424 122.43C287.911 122.43 288.351 122.547 288.744 122.78C289.144 123.013 289.458 123.343 289.684 123.77C289.911 124.19 290.024 124.68 290.024 125.24C290.024 125.793 289.911 126.287 289.684 126.72C289.458 127.153 289.144 127.49 288.744 127.73C288.351 127.97 287.911 128.09 287.424 128.09C286.958 128.09 286.544 127.987 286.184 127.78C285.831 127.567 285.561 127.303 285.374 126.99V130.6H284.464V122.52H285.374V123.53ZM289.094 125.24C289.094 124.827 289.011 124.467 288.844 124.16C288.678 123.853 288.451 123.62 288.164 123.46C287.884 123.3 287.574 123.22 287.234 123.22C286.901 123.22 286.591 123.303 286.304 123.47C286.024 123.63 285.798 123.867 285.624 124.18C285.458 124.487 285.374 124.843 285.374 125.25C285.374 125.663 285.458 126.027 285.624 126.34C285.798 126.647 286.024 126.883 286.304 127.05C286.591 127.21 286.901 127.29 287.234 127.29C287.574 127.29 287.884 127.21 288.164 127.05C288.451 126.883 288.678 126.647 288.844 126.34C289.011 126.027 289.094 125.66 289.094 125.24ZM296.222 125.05C296.222 125.223 296.212 125.407 296.192 125.6H291.812C291.845 126.14 292.029 126.563 292.362 126.87C292.702 127.17 293.112 127.32 293.592 127.32C293.985 127.32 294.312 127.23 294.572 127.05C294.839 126.863 295.025 126.617 295.132 126.31H296.112C295.965 126.837 295.672 127.267 295.232 127.6C294.792 127.927 294.245 128.09 293.592 128.09C293.072 128.09 292.605 127.973 292.192 127.74C291.785 127.507 291.465 127.177 291.232 126.75C290.999 126.317 290.882 125.817 290.882 125.25C290.882 124.683 290.995 124.187 291.222 123.76C291.449 123.333 291.765 123.007 292.172 122.78C292.585 122.547 293.059 122.43 293.592 122.43C294.112 122.43 294.572 122.543 294.972 122.77C295.372 122.997 295.679 123.31 295.892 123.71C296.112 124.103 296.222 124.55 296.222 125.05ZM295.282 124.86C295.282 124.513 295.205 124.217 295.052 123.97C294.899 123.717 294.689 123.527 294.422 123.4C294.162 123.267 293.872 123.2 293.552 123.2C293.092 123.2 292.699 123.347 292.372 123.64C292.052 123.933 291.869 124.34 291.822 124.86H295.282ZM298.333 123.41C298.493 123.097 298.72 122.853 299.013 122.68C299.313 122.507 299.677 122.42 300.103 122.42V123.36H299.863C298.843 123.36 298.333 123.913 298.333 125.02V128H297.423V122.52H298.333V123.41Z" fill="black"/>
<path d="M39.7246 155.73L41.1406 159.246H53.1523L54.5684 155.73H39.7246ZM36.9902 148.699L38.3574 152.215H55.8867L57.4004 148.699H36.9902ZM34.2559 141.668L35.623 145.184H58.6699L60.1348 141.668H34.2559ZM5.69141 132H1.88281L33.8652 212.859H37.6738L69.6074 132H65.8477L35.7695 208.123L5.69141 132ZM36.209 199.773L38.2109 195.281L13.2109 132H9.45117L36.209 199.773ZM40.1152 190.496L41.9707 185.662L20.8281 132H17.0195L40.1152 190.496ZM43.8262 180.828L45.6816 175.896L28.3477 132H24.5879L43.8262 180.828ZM92.3125 132H88.5039L56.5703 212.859H60.3301L92.3125 132ZM52.7617 212.859L84.7441 132H80.9844L49.002 212.859H52.7617ZM45.1934 212.859L77.1758 132H73.3672L41.4336 212.859H45.1934ZM155.887 170.916L152.371 176.727V212.859H155.887V170.916ZM162.918 159.393L159.402 165.301V212.859H162.918V159.393ZM169.949 147.723L166.434 153.68V212.859H169.949V147.723ZM119.559 173.943L123.074 168.133V132H119.559V173.943ZM112.527 185.467L116.043 179.559V132H112.527V185.467ZM105.496 197.137L109.012 191.18V132H105.496V197.137ZM106.717 212.859H110.818L160.525 132H156.424L106.717 212.859ZM115.018 212.859H119.168L168.826 132H164.627L115.018 212.859ZM123.27 212.859H127.371L173.465 137.713V212.859H176.98V132C176.98 132 175.597 132 172.83 132L123.27 212.859ZM101.98 207.146V132H98.4648V212.859C98.4648 212.859 99.8646 212.859 102.664 212.859L152.225 132H148.172L101.98 207.146ZM207.352 153.094V191.766C207.352 191.766 215.343 191.766 231.326 191.766C235.2 191.766 238.52 189.861 241.287 186.053C244.087 182.277 245.486 177.736 245.486 172.43C245.486 167.091 244.087 162.534 241.287 158.758C238.52 154.982 235.2 153.094 231.326 153.094H207.352ZM210.867 156.609H231.326C234.223 156.609 236.697 158.156 238.748 161.248C240.831 164.34 241.873 168.068 241.873 172.43C241.873 176.824 240.831 180.551 238.748 183.611C236.697 186.704 234.223 188.25 231.326 188.25H210.867V156.609ZM203.836 149.578H231.326C236.176 149.578 240.343 151.808 243.826 156.268C247.342 160.76 249.1 166.147 249.1 172.43C249.1 176.564 248.286 180.389 246.658 183.904C245.063 187.42 242.898 190.187 240.164 192.205C237.462 194.256 234.516 195.281 231.326 195.281H203.836V149.578ZM200.32 146.062V198.797H231.326C235.135 198.797 238.683 197.625 241.971 195.281C245.258 192.938 247.863 189.731 249.783 185.662C251.736 181.626 252.713 177.215 252.713 172.43C252.713 167.677 251.736 163.266 249.783 159.197C247.863 155.128 245.258 151.922 241.971 149.578C238.683 147.234 235.135 146.062 231.326 146.062H200.32ZM196.805 142.547H231.326C235.786 142.547 239.92 143.882 243.729 146.551C247.57 149.22 250.63 152.85 252.908 157.439C255.187 162.029 256.326 167.026 256.326 172.43C256.326 177.801 255.187 182.781 252.908 187.371C250.63 191.993 247.57 195.639 243.729 198.309C239.887 200.978 235.753 202.312 231.326 202.312H196.805V142.547ZM193.289 139.031V205.828H231.326C236.404 205.828 241.141 204.331 245.535 201.336C249.93 198.374 253.429 194.321 256.033 189.178C258.637 184.035 259.939 178.452 259.939 172.43C259.939 166.408 258.637 160.825 256.033 155.682C253.429 150.538 249.93 146.469 245.535 143.475C241.141 140.512 236.404 139.031 231.326 139.031H193.289ZM189.773 135.516H231.326C235.59 135.516 239.708 136.492 243.68 138.445C247.651 140.398 251.085 143.019 253.982 146.307C256.88 149.594 259.191 153.517 260.916 158.074C262.674 162.664 263.553 167.449 263.553 172.43C263.553 177.41 262.674 182.179 260.916 186.736C259.191 191.294 256.88 195.216 253.982 198.504C251.085 201.824 247.651 204.461 243.68 206.414C239.708 208.367 235.59 209.344 231.326 209.344H189.773V135.516ZM231.326 132H186.258V212.859H231.326C237.674 212.859 243.598 211.053 249.1 207.439C254.601 203.826 258.979 198.911 262.234 192.693C265.522 186.476 267.166 179.721 267.166 172.43C267.166 166.961 266.189 161.72 264.236 156.707C262.316 151.727 259.744 147.43 256.521 143.816C253.299 140.203 249.474 137.322 245.047 135.174C240.652 133.058 236.079 132 231.326 132ZM301.492 172.234H322.684C325.906 172.234 328.624 173.276 330.838 175.359C333.084 177.443 334.207 180.405 334.207 184.246C334.207 187.078 333.035 189.617 330.691 191.863C328.348 194.142 325.678 195.281 322.684 195.281H292.508V132H288.992V198.797H322.684C326.655 198.797 330.154 197.316 333.182 194.354C336.209 191.424 337.723 188.055 337.723 184.246C337.723 179.559 336.258 175.799 333.328 172.967C330.398 170.135 326.85 168.719 322.684 168.719H301.492V172.234ZM301.492 165.203H322.684C327.762 165.203 332.124 166.977 335.77 170.525C339.415 174.106 341.238 178.68 341.238 184.246C341.238 189.031 339.367 193.23 335.623 196.844C331.912 200.49 327.599 202.312 322.684 202.312H285.477V132H281.961V205.828H322.684C326.557 205.828 330.187 204.835 333.572 202.85C336.99 200.864 339.708 198.195 341.727 194.842C343.745 191.521 344.754 187.99 344.754 184.246C344.754 177.833 342.573 172.462 338.211 168.133C333.882 163.836 328.706 161.688 322.684 161.688H301.492V165.203ZM301.492 158.172H322.684C327.241 158.172 331.473 159.295 335.379 161.541C339.285 163.787 342.41 166.912 344.754 170.916C347.098 174.952 348.27 179.396 348.27 184.246C348.27 188.641 347.098 192.758 344.754 196.6C342.443 200.473 339.318 203.566 335.379 205.877C331.44 208.188 327.208 209.344 322.684 209.344H278.445V132H274.93V212.859H322.684C327.794 212.859 332.596 211.541 337.088 208.904C341.58 206.3 345.145 202.785 347.781 198.357C350.451 193.963 351.785 189.259 351.785 184.246C351.785 178.452 350.532 173.357 348.025 168.963C345.551 164.568 342.182 161.134 337.918 158.66L347 132H343.289L334.598 157C333.296 156.479 332.303 156.121 331.619 155.926L339.773 132H336.062L328.104 155.096C327.811 155.031 326.769 154.917 324.979 154.754L332.547 132H328.836L321.365 154.656H318.191L325.32 132H321.609L314.432 154.656H301.492V158.172ZM299.539 132H296.023V191.766H322.684C324.865 191.766 326.736 191.017 328.299 189.52C329.894 188.055 330.691 186.297 330.691 184.246C330.691 178.582 328.022 175.75 322.684 175.75H301.492V179.266H322.684C324.083 179.266 325.174 179.624 325.955 180.34C326.769 181.089 327.176 182.391 327.176 184.246C327.176 185.385 326.736 186.329 325.857 187.078C325.011 187.859 323.953 188.25 322.684 188.25H299.539V132ZM376.883 132H373.367V212.859H376.883V132ZM369.852 132H366.336V212.859H369.852V132ZM362.82 132H359.305V212.859H362.82V132ZM383.914 149.578H421.316V146.062H383.914V142.547H421.316V139.031H383.914V135.516H421.316V132H380.398V212.859H421.316V209.344H383.914V205.828H421.316V202.312H383.914V198.797H421.316V195.281H383.914V181.219H403.104V177.703H383.914V174.188H403.104V170.672H383.914V167.156H403.104V163.641H383.914V149.578ZM462.674 181.219H456.766C454.259 181.219 452.452 181.854 451.346 183.123C450.239 184.425 449.686 186.134 449.686 188.25C449.686 192.938 453.185 195.281 460.184 195.281C466.759 195.281 471.707 194.305 475.027 192.352L472.195 190.203C469.917 191.245 465.913 191.766 460.184 191.766C457.384 191.766 455.496 191.456 454.52 190.838C453.576 190.219 453.104 189.357 453.104 188.25C453.104 187.143 453.364 186.281 453.885 185.662C454.406 185.044 455.366 184.734 456.766 184.734H462.82C467.215 184.734 471.17 183.986 474.686 182.488C478.234 180.991 481.147 178.94 483.426 176.336C485.704 173.764 487.446 170.786 488.65 167.4C489.855 164.048 490.457 160.451 490.457 156.609C490.457 153.484 490.018 150.522 489.139 147.723C488.26 144.923 486.925 142.352 485.135 140.008C483.377 137.664 481.245 135.63 478.738 133.904C476.264 132.212 473.302 130.893 469.852 129.949C466.434 128.973 462.723 128.484 458.719 128.484C452.436 128.484 446.544 129.445 441.043 131.365C435.574 133.253 431.017 135.906 427.371 139.324L430.203 141.424C433.523 138.429 437.674 136.102 442.654 134.441C447.667 132.814 453.022 132 458.719 132C463.178 132 467.199 132.635 470.779 133.904C474.393 135.206 477.355 136.98 479.666 139.227C482.01 141.473 483.8 144.077 485.037 147.039C486.307 150.001 486.941 153.191 486.941 156.609C486.941 161.134 486.03 165.219 484.207 168.865C482.384 172.544 479.601 175.522 475.857 177.801C472.146 180.079 467.752 181.219 462.674 181.219ZM456.766 177.703H462.332C468.94 177.703 474.1 175.685 477.811 171.648C481.554 167.612 483.426 162.599 483.426 156.609C483.426 150.522 481.261 145.477 476.932 141.473C472.602 137.501 466.531 135.516 458.719 135.516C453.51 135.516 448.644 136.232 444.119 137.664C439.594 139.096 435.835 141.115 432.84 143.719L435.574 145.916C438.243 143.735 441.596 142.042 445.633 140.838C449.702 139.633 454.064 139.031 458.719 139.031C465.587 139.031 470.828 140.675 474.441 143.963C478.087 147.251 479.91 151.466 479.91 156.609C479.91 161.688 478.38 165.887 475.32 169.207C472.293 172.527 467.947 174.188 462.283 174.188H456.766C452.013 174.188 448.449 175.49 446.072 178.094C443.696 180.698 442.508 184.083 442.508 188.25C442.508 192.417 443.973 195.802 446.902 198.406C449.865 201.01 454.292 202.312 460.184 202.312C464.318 202.312 468.159 201.824 471.707 200.848C475.255 199.904 478.185 198.536 480.496 196.746L477.713 194.598C473.644 197.397 467.801 198.797 460.184 198.797C455.268 198.797 451.671 197.82 449.393 195.867C447.146 193.947 446.023 191.408 446.023 188.25C446.023 185.06 446.854 182.505 448.514 180.584C450.206 178.663 452.957 177.703 456.766 177.703ZM456.766 170.672H462.137C466.889 170.672 470.454 169.354 472.83 166.717C475.206 164.08 476.395 160.711 476.395 156.609C476.395 152.443 474.913 149.057 471.951 146.453C469.021 143.849 464.611 142.547 458.719 142.547C454.585 142.547 450.727 143.019 447.146 143.963C443.598 144.939 440.669 146.323 438.357 148.113L441.141 150.262C445.21 147.462 451.069 146.062 458.719 146.062C463.634 146.062 467.215 147.023 469.461 148.943C471.74 150.896 472.879 153.452 472.879 156.609C472.879 159.767 472.033 162.306 470.34 164.227C468.647 166.18 465.896 167.156 462.088 167.156H456.766C450.092 167.156 444.868 169.142 441.092 173.113C437.348 177.117 435.477 182.163 435.477 188.25C435.477 194.337 437.641 199.367 441.971 203.338C446.3 207.342 452.371 209.344 460.184 209.344C465.392 209.344 470.242 208.628 474.734 207.195C479.259 205.763 483.019 203.745 486.014 201.141L483.279 198.943C480.61 201.124 477.257 202.817 473.221 204.021C469.184 205.226 464.839 205.828 460.184 205.828C453.315 205.828 448.058 204.184 444.412 200.896C440.799 197.609 438.992 193.393 438.992 188.25C438.992 183.139 440.522 178.924 443.582 175.604C446.642 172.316 451.036 170.672 456.766 170.672ZM456.766 163.641H462.137C464.643 163.641 466.45 162.99 467.557 161.688C468.663 160.385 469.217 158.693 469.217 156.609C469.217 151.922 465.717 149.578 458.719 149.578C452.111 149.578 447.146 150.555 443.826 152.508L446.658 154.656C448.937 153.615 452.957 153.094 458.719 153.094C461.518 153.094 463.39 153.403 464.334 154.021C465.311 154.64 465.799 155.503 465.799 156.609C465.799 157.684 465.522 158.53 464.969 159.148C464.448 159.799 463.471 160.125 462.039 160.125H456.766C452.273 160.125 448.204 160.857 444.559 162.322C440.945 163.787 437.967 165.805 435.623 168.377C433.312 170.949 431.538 173.927 430.301 177.312C429.064 180.698 428.445 184.344 428.445 188.25C428.445 191.375 428.885 194.337 429.764 197.137C430.643 199.936 431.961 202.508 433.719 204.852C435.509 207.195 437.641 209.214 440.115 210.906C442.622 212.632 445.584 213.966 449.002 214.91C452.452 215.887 456.18 216.375 460.184 216.375C466.466 216.375 472.342 215.415 477.811 213.494C483.279 211.606 487.837 208.953 491.482 205.535L488.65 203.436C485.33 206.43 481.18 208.742 476.199 210.369C471.219 212.029 465.88 212.859 460.184 212.859C455.724 212.859 451.688 212.208 448.074 210.906C444.493 209.637 441.531 207.879 439.188 205.633C436.876 203.387 435.086 200.783 433.816 197.82C432.579 194.858 431.961 191.668 431.961 188.25C431.961 183.66 432.889 179.526 434.744 175.848C436.6 172.169 439.432 169.207 443.24 166.961C447.049 164.747 451.557 163.641 456.766 163.641Z" fill="black"/>
</svg>
