<svg width="537" height="396" viewBox="0 0 537 396" fill="none" xmlns="http://www.w3.org/2000/svg">
<path d="M4.75391 300.898H-22.2725V285.078H4.75391C12.5176 285.078 19.0361 282.148 24.3096 276.289C29.583 270.43 32.2197 262.666 32.2197 252.998V16.1328H48.04V252.998C48.04 266.914 43.8652 278.413 35.5156 287.495C27.166 296.431 16.9121 300.898 4.75391 300.898ZM4.75391 332.539H-22.2725V316.719H4.75391C21.1602 316.719 35.0762 310.493 46.502 298.042C58.0742 285.591 63.8604 270.576 63.8604 252.998V16.1328H79.6807V252.998C79.6807 274.971 72.3564 293.721 57.708 309.248C43.2061 324.775 25.5547 332.539 4.75391 332.539ZM4.75391 364.18H-22.2725V348.359H4.75391C29.9492 348.359 51.3359 339.058 68.9141 320.454C86.6387 301.851 95.501 279.365 95.501 252.998V16.1328H111.321V252.998C111.321 273.066 106.561 291.67 97.0391 308.809C87.6641 325.801 74.7734 339.277 58.3672 349.238C41.9609 359.199 24.0898 364.18 4.75391 364.18ZM4.75391 395.82H-22.2725V380H4.75391C21.4531 380 37.3467 376.631 52.4346 369.893C67.5225 363.154 80.4863 354.146 91.3262 342.866C102.312 331.44 111.028 317.891 117.474 302.217C123.919 286.543 127.142 270.137 127.142 252.998V16.1328H142.962V252.998C142.962 272.334 139.3 290.791 131.976 308.369C124.798 325.947 114.983 341.182 102.532 354.072C90.2275 366.816 75.5059 376.924 58.3672 384.395C41.375 392.012 23.5039 395.82 4.75391 395.82ZM458.05 140.498L445.086 149.067C437.176 137.349 426.849 128.12 414.104 121.382C401.507 114.497 387.811 111.055 373.016 111.055C348.992 111.055 328.484 119.551 311.492 136.543C294.5 153.535 286.004 174.043 286.004 198.066C286.004 222.09 294.5 242.598 311.492 259.59C328.484 276.582 348.992 285.078 373.016 285.078C387.811 285.078 401.507 281.636 414.104 274.751C426.849 267.866 437.176 258.564 445.086 246.846L457.83 256.074C448.455 269.844 436.297 280.757 421.355 288.813C406.414 296.87 390.301 300.898 373.016 300.898C359.1 300.898 345.77 298.188 333.025 292.769C320.428 287.349 309.515 280.024 300.286 270.796C291.058 261.567 283.733 250.654 278.313 238.057C272.894 225.312 270.184 211.982 270.184 198.066C270.184 184.15 272.894 170.894 278.313 158.296C283.733 145.552 291.058 134.565 300.286 125.337C309.515 116.108 320.428 108.784 333.025 103.364C345.77 97.9443 359.1 95.2344 373.016 95.2344C390.447 95.2344 406.634 99.3359 421.575 107.539C436.517 115.596 448.675 126.582 458.05 140.498ZM484.197 122.48L471.014 131.05C460.174 115.229 446.111 102.705 428.826 93.4766C411.688 84.1016 393.084 79.4141 373.016 79.4141C351.482 79.4141 331.634 84.7607 313.47 95.4541C295.306 106.001 280.877 120.356 270.184 138.521C259.637 156.685 254.363 176.533 254.363 198.066C254.363 219.6 259.637 239.448 270.184 257.612C280.877 275.776 295.306 290.205 313.47 300.898C331.634 311.445 351.482 316.719 373.016 316.719C393.084 316.719 411.761 312.031 429.046 302.656C446.331 293.281 460.394 280.61 471.233 264.644L484.197 273.652C471.893 291.816 455.926 306.172 436.297 316.719C416.814 327.266 395.721 332.539 373.016 332.539C348.699 332.539 326.214 326.533 305.56 314.521C284.905 302.51 268.572 286.177 256.561 265.522C244.549 244.868 238.543 222.383 238.543 198.066C238.543 173.75 244.549 151.265 256.561 130.61C268.572 109.956 284.905 93.623 305.56 81.6113C326.214 69.5996 348.699 63.5938 373.016 63.5938C395.721 63.5938 416.814 68.8672 436.297 79.4141C455.926 89.9609 471.893 104.316 484.197 122.48ZM510.564 104.902L497.381 113.472C483.611 93.2568 465.74 77.29 443.768 65.5713C421.941 53.7061 398.357 47.7734 373.016 47.7734C352.654 47.7734 333.172 51.7285 314.568 59.6387C295.965 67.5488 279.925 78.2422 266.448 91.7188C253.118 105.049 242.498 121.016 234.588 139.619C226.678 158.223 222.723 177.705 222.723 198.066C222.723 218.428 226.678 237.91 234.588 256.514C242.498 275.117 253.118 291.157 266.448 304.634C279.925 317.964 295.965 328.584 314.568 336.494C333.172 344.404 352.654 348.359 373.016 348.359C398.504 348.359 422.161 342.427 443.987 330.562C465.813 318.696 483.611 302.656 497.381 282.441L510.125 291.89C494.891 314.155 475.188 331.807 451.019 344.844C426.995 357.734 400.994 364.18 373.016 364.18C342.986 364.18 315.228 356.782 289.739 341.987C264.251 327.046 244.036 306.831 229.095 281.343C214.3 255.854 206.902 228.096 206.902 198.066C206.902 168.037 214.3 140.278 229.095 114.79C244.036 89.3018 264.251 69.1602 289.739 54.3652C315.228 39.4238 342.986 31.9531 373.016 31.9531C401.141 31.9531 427.288 38.5449 451.458 51.7285C475.628 64.7656 495.33 82.4902 510.564 104.902ZM536.492 86.8848L523.309 95.4541C506.609 70.9912 485.003 51.6553 458.489 37.4463C432.122 23.2373 403.631 16.1328 373.016 16.1328C348.406 16.1328 324.822 20.9668 302.264 30.6348C279.852 40.1562 260.516 53.0469 244.256 69.3066C227.996 85.5664 215.032 104.976 205.364 127.534C195.843 149.946 191.082 173.457 191.082 198.066C191.082 222.676 195.843 246.26 205.364 268.818C215.032 291.23 227.996 310.566 244.256 326.826C260.516 343.086 279.852 356.05 302.264 365.718C324.822 375.239 348.406 380 373.016 380C403.631 380 432.195 372.822 458.709 358.467C485.223 344.111 506.829 324.702 523.528 300.239L536.272 309.907C518.108 336.274 494.671 357.222 465.96 372.749C437.249 388.13 406.268 395.82 373.016 395.82C346.209 395.82 320.574 390.547 296.111 380C271.795 369.6 250.774 355.61 233.05 338.032C215.472 320.308 201.409 299.287 190.862 274.971C180.462 250.508 175.262 224.873 175.262 198.066C175.262 171.26 180.462 145.698 190.862 121.382C201.409 96.9189 215.472 75.8984 233.05 58.3203C250.774 40.5957 271.795 26.5332 296.111 16.1328C320.574 5.58594 346.209 0.3125 373.016 0.3125C406.414 0.3125 437.469 8.07617 466.18 23.6035C494.891 39.1309 518.328 60.2246 536.492 86.8848Z" fill="black"/>
</svg>
