<svg width="279" height="893" viewBox="0 0 279 893" fill="none" xmlns="http://www.w3.org/2000/svg">
<path d="M127.246 849.061V858.37H132.695V849.061C132.695 846.387 133.704 844.142 135.723 842.325C137.741 840.509 140.415 839.601 143.745 839.601H225.332V834.151H143.745C138.952 834.151 134.991 835.589 131.863 838.465C128.785 841.341 127.246 844.873 127.246 849.061ZM116.348 849.061V858.37H121.797V849.061C121.797 843.41 123.941 838.617 128.23 834.681C132.519 830.695 137.69 828.702 143.745 828.702H225.332V823.253H143.745C136.177 823.253 129.718 825.776 124.37 830.821C119.022 835.816 116.348 841.896 116.348 849.061ZM105.449 849.061V858.37H110.898V849.061C110.898 840.383 114.102 833.016 120.51 826.961C126.918 820.856 134.663 817.804 143.745 817.804H225.332V812.354H143.745C136.833 812.354 130.425 813.994 124.521 817.274C118.669 820.503 114.027 824.943 110.596 830.594C107.165 836.245 105.449 842.401 105.449 849.061ZM94.5508 849.061V858.37H100V849.061C100 843.309 101.16 837.835 103.481 832.638C105.802 827.441 108.905 822.975 112.791 819.242C116.726 815.458 121.393 812.455 126.792 810.235C132.191 808.015 137.842 806.905 143.745 806.905H225.332V801.456H143.745C137.085 801.456 130.728 802.717 124.673 805.24C118.618 807.713 113.371 811.093 108.931 815.382C104.541 819.62 101.06 824.691 98.4863 830.594C95.8626 836.447 94.5508 842.603 94.5508 849.061ZM182.495 692.926L179.543 697.391C183.58 700.116 186.759 703.673 189.08 708.062C191.451 712.402 192.637 717.119 192.637 722.215C192.637 730.49 189.71 737.554 183.857 743.407C178.005 749.26 170.941 752.186 162.666 752.186C154.391 752.186 147.327 749.26 141.475 743.407C135.622 737.554 132.695 730.49 132.695 722.215C132.695 717.119 133.881 712.402 136.252 708.062C138.624 703.673 141.828 700.116 145.864 697.391L142.686 693.001C137.943 696.231 134.184 700.418 131.409 705.565C128.634 710.711 127.246 716.262 127.246 722.215C127.246 727.009 128.18 731.6 130.046 735.99C131.913 740.329 134.436 744.088 137.615 747.267C140.793 750.445 144.552 752.968 148.892 754.835C153.281 756.702 157.873 757.635 162.666 757.635C167.459 757.635 172.026 756.702 176.365 754.835C180.754 752.968 184.539 750.445 187.717 747.267C190.896 744.088 193.419 740.329 195.286 735.99C197.153 731.6 198.086 727.009 198.086 722.215C198.086 716.211 196.673 710.636 193.848 705.489C191.073 700.343 187.288 696.155 182.495 692.926ZM188.701 683.919L185.75 688.46C191.199 692.194 195.513 697.038 198.691 702.992C201.921 708.895 203.535 715.303 203.535 722.215C203.535 729.632 201.694 736.469 198.01 742.726C194.377 748.982 189.433 753.952 183.176 757.635C176.92 761.268 170.083 763.084 162.666 763.084C155.249 763.084 148.412 761.268 142.156 757.635C135.899 753.952 130.929 748.982 127.246 742.726C123.613 736.469 121.797 729.632 121.797 722.215C121.797 715.303 123.411 708.87 126.641 702.916C129.87 696.962 134.234 692.118 139.734 688.385L136.631 683.919C130.374 688.158 125.43 693.657 121.797 700.418C118.164 707.129 116.348 714.395 116.348 722.215C116.348 730.591 118.416 738.336 122.554 745.45C126.691 752.564 132.317 758.19 139.431 762.328C146.545 766.465 154.29 768.534 162.666 768.534C171.042 768.534 178.787 766.465 185.901 762.328C193.015 758.19 198.641 752.564 202.778 745.45C206.916 738.336 208.984 730.591 208.984 722.215C208.984 714.395 207.168 707.129 203.535 700.418C199.902 693.657 194.958 688.158 188.701 683.919ZM194.756 674.837L191.804 679.378C198.767 684.121 204.267 690.277 208.303 697.845C212.39 705.363 214.434 713.486 214.434 722.215C214.434 729.229 213.071 735.939 210.347 742.347C207.622 748.755 203.939 754.28 199.297 758.922C194.705 763.513 189.206 767.171 182.798 769.896C176.39 772.621 169.679 773.983 162.666 773.983C155.653 773.983 148.942 772.621 142.534 769.896C136.126 767.171 130.601 763.513 125.959 758.922C121.368 754.28 117.71 748.755 114.985 742.347C112.261 735.939 110.898 729.229 110.898 722.215C110.898 713.436 112.942 705.287 117.029 697.77C121.116 690.252 126.641 684.121 133.604 679.378L130.349 674.989C122.68 680.236 116.6 687.022 112.109 695.348C107.669 703.622 105.449 712.578 105.449 722.215C105.449 732.559 107.997 742.12 113.093 750.899C118.24 759.679 125.203 766.642 133.982 771.788C142.761 776.884 152.323 779.432 162.666 779.432C173.009 779.432 182.571 776.884 191.35 771.788C200.129 766.642 207.067 759.679 212.163 750.899C217.31 742.12 219.883 732.559 219.883 722.215C219.883 712.528 217.612 703.521 213.071 695.196C208.581 686.871 202.476 680.085 194.756 674.837ZM200.962 665.907L198.01 670.448C206.436 676.2 213.097 683.642 217.991 692.774C222.885 701.856 225.332 711.67 225.332 722.215C225.332 730.692 223.667 738.815 220.337 746.585C217.057 754.305 212.617 760.965 207.017 766.566C201.416 772.167 194.731 776.632 186.96 779.962C179.241 783.242 171.143 784.881 162.666 784.881C154.189 784.881 146.066 783.242 138.296 779.962C130.576 776.632 123.916 772.167 118.315 766.566C112.715 760.965 108.25 754.305 104.919 746.585C101.64 738.815 100 730.692 100 722.215C100 711.67 102.472 701.831 107.417 692.699C112.362 683.566 119.047 676.124 127.473 670.372L124.143 665.982C115.061 672.239 107.846 680.312 102.498 690.201C97.1997 700.09 94.5508 710.762 94.5508 722.215C94.5508 731.449 96.3672 740.278 100 748.705C103.582 757.08 108.401 764.321 114.456 770.426C120.561 776.48 127.801 781.324 136.177 784.957C144.603 788.539 153.433 790.331 162.666 790.331C171.899 790.331 180.704 788.539 189.08 784.957C197.506 781.324 204.746 776.48 210.801 770.426C216.906 764.321 221.75 757.08 225.332 748.705C228.965 740.278 230.781 731.449 230.781 722.215C230.781 710.711 228.107 700.015 222.759 690.125C217.41 680.236 210.145 672.163 200.962 665.907ZM153.735 578.038C160.194 578.038 165.189 580.031 168.721 584.017C172.253 588.003 174.019 593.276 174.019 599.835C174.019 605.385 172.101 610.153 168.267 614.139C164.432 618.125 159.84 620.118 154.492 620.118C151.465 620.118 148.74 619.715 146.318 618.907C143.947 618.1 141.954 617.015 140.339 615.653C138.775 614.24 137.463 612.575 136.404 610.658C135.395 608.74 134.663 606.747 134.209 604.679C133.755 602.56 133.528 600.314 133.528 597.943C133.528 592.191 134.941 586.944 137.766 582.201H132.317C129.744 587.095 128.457 592.368 128.457 598.019C128.457 601.651 128.936 605.082 129.895 608.312C130.904 611.49 132.393 614.391 134.36 617.015C136.379 619.639 139.103 621.733 142.534 623.297C146.016 624.811 150.002 625.567 154.492 625.567C161.455 625.567 167.358 623.12 172.202 618.226C177.046 613.332 179.468 607.201 179.468 599.835C179.468 591.712 177.172 585.152 172.581 580.157C168.04 575.112 161.758 572.589 153.735 572.589H100V578.038H153.735ZM153.735 561.69H100V567.14H153.735C163.271 567.14 170.84 570.192 176.44 576.297C182.091 582.403 184.917 590.248 184.917 599.835C184.917 608.715 181.965 616.132 176.062 622.086C170.159 628.04 162.969 631.017 154.492 631.017C149.346 631.017 144.729 630.134 140.642 628.368C136.555 626.551 133.276 624.104 130.803 621.026C128.331 617.949 126.439 614.518 125.127 610.733C123.866 606.899 123.235 602.862 123.235 598.624C123.235 592.872 124.572 587.398 127.246 582.201H121.494C119.224 587.65 118.088 593.15 118.088 598.7C118.088 603.695 118.845 608.438 120.359 612.928C121.923 617.419 124.168 621.43 127.095 624.962C130.072 628.494 133.906 631.294 138.599 633.363C143.341 635.431 148.639 636.466 154.492 636.466C164.432 636.466 172.883 632.959 179.846 625.946C186.86 618.882 190.366 610.178 190.366 599.835C190.366 592.569 188.878 586.061 185.901 580.309C182.974 574.557 178.711 570.016 173.11 566.686C167.51 563.355 161.051 561.69 153.735 561.69ZM153.735 550.792H100V556.241H153.735C162.061 556.241 169.427 558.159 175.835 561.993C182.293 565.777 187.238 570.974 190.669 577.584C194.1 584.194 195.815 591.611 195.815 599.835C195.815 607.656 193.949 614.795 190.215 621.253C186.532 627.712 181.536 632.783 175.229 636.466C168.923 640.099 162.01 641.915 154.492 641.915C148.034 641.915 142.131 640.729 136.782 638.358C131.484 635.986 127.12 632.808 123.689 628.822C120.258 624.785 117.584 620.219 115.667 615.123C113.8 609.977 112.866 604.603 112.866 599.002C112.866 593.301 114.052 587.7 116.423 582.201H110.898C108.729 587.953 107.644 593.604 107.644 599.154C107.644 607.883 109.612 615.905 113.547 623.221C117.483 630.537 123.058 636.39 130.273 640.78C137.489 645.169 145.562 647.364 154.492 647.364C160.85 647.364 166.904 646.153 172.656 643.731C178.408 641.259 183.378 637.929 187.566 633.741C191.754 629.553 195.084 624.508 197.556 618.604C200.028 612.701 201.265 606.445 201.265 599.835C201.265 590.602 199.297 582.276 195.361 574.859C191.426 567.392 185.825 561.514 178.56 557.225C171.294 552.936 163.019 550.792 153.735 550.792ZM153.735 539.894H100V545.343H153.735C164.028 545.343 173.211 547.739 181.284 552.533C189.408 557.326 195.664 563.86 200.054 572.135C204.494 580.41 206.714 589.643 206.714 599.835C206.714 609.623 204.368 618.579 199.675 626.703C194.983 634.826 188.625 641.209 180.603 645.851C172.631 650.493 163.927 652.813 154.492 652.813C148.286 652.813 142.383 651.83 136.782 649.862C131.232 647.844 126.363 645.119 122.175 641.688C118.038 638.207 114.456 634.221 111.428 629.73C108.401 625.189 106.105 620.32 104.541 615.123C102.977 609.876 102.195 604.553 102.195 599.154C102.195 593.2 103.33 587.549 105.601 582.201H100C98.0322 587.801 97.0483 593.553 97.0483 599.457C97.0483 605.562 97.9061 611.515 99.6216 617.318C101.337 623.07 103.86 628.418 107.19 633.363C110.57 638.257 114.531 642.571 119.072 646.305C123.664 650.038 129.012 652.965 135.117 655.084C141.222 657.203 147.681 658.263 154.492 658.263C162.313 658.263 169.755 656.799 176.819 653.873C183.933 650.896 190.063 646.86 195.21 641.764C200.407 636.617 204.519 630.411 207.546 623.146C210.624 615.829 212.163 608.059 212.163 599.835C212.163 591.459 210.75 583.588 207.925 576.222C205.099 568.855 201.164 562.498 196.118 557.149C191.123 551.801 184.967 547.588 177.651 544.51C170.335 541.432 162.363 539.894 153.735 539.894ZM100 488.277V493.727H225.332V488.277H100ZM100 499.176V504.625H225.332V499.176H100ZM100 510.074V515.523H225.332V510.074H100ZM100 520.973V526.422H225.332V520.973H100ZM162.666 448.468L225.332 416.454V410.399L162.666 442.413L100 410.399V416.454L162.666 448.468ZM162.666 460.653L225.332 428.639V422.584L162.666 454.598L100 422.584V428.639L162.666 460.653ZM162.666 472.838L225.332 440.824V434.769L162.666 466.783L100 434.769V440.824L162.666 472.838ZM162.666 485.099L225.332 453.009V446.954L162.666 479.044L100 446.954V453.009L162.666 485.099ZM100 372.633V378.082H208.984V372.633H100ZM100 383.531V388.98H208.984V383.531H100ZM100 394.43V399.879H208.984V394.43H100ZM127.246 361.734V309.588H121.797V361.734H116.348V309.588H110.898V361.734H105.449V309.588H100V367.184H208.984V309.588H203.535V361.734H198.086V309.588H192.637V361.734H187.188V309.588H181.738V361.734H168.191V312.616H162.742V361.734H157.292V312.616H151.843V361.734H146.394V312.616H140.945V361.734H127.246ZM208.984 263.8V258.351H100V263.8H208.984ZM208.984 274.698V269.249H100V274.698H208.984ZM208.984 285.597V280.147H100V285.597H208.984ZM208.984 296.495V291.046H100V296.495H208.984ZM178.787 224.823V219.374H100V224.823H178.787ZM203.535 246.62H208.984V164.881H203.535V246.62ZM192.637 246.62H198.086V164.881H192.637V246.62ZM181.738 246.62H187.188V164.881H181.738V246.62ZM178.787 192.127V186.678H100V192.127H178.787ZM178.787 203.026V197.577H100V203.026H178.787ZM178.787 213.924V208.475H100V213.924H178.787ZM208.984 43.7876V38.3384H100V43.7876H208.984ZM208.984 152.848V147.398H100V152.848H208.984ZM208.984 54.686V49.2368H100V54.686H208.984ZM208.984 65.5845V60.1353H100V65.5845H208.984ZM208.984 76.4829V71.0337H100V76.4829H143.594V114.703H100V120.152H208.984V114.703H170.84V76.4829H208.984ZM208.984 131.051V125.602H100V131.051H208.984ZM208.984 141.949V136.5H100V141.949H208.984ZM149.043 76.4829H154.492V114.703H149.043V76.4829ZM159.941 76.4829H165.391V114.703H159.941V76.4829Z" fill="black"/>
<path d="M151.754 849.061V858.37H146.305V849.061C146.305 846.387 145.296 844.142 143.277 842.325C141.259 840.509 138.585 839.601 135.255 839.601H53.668V834.151H135.255C140.048 834.151 144.009 835.589 147.137 838.465C150.215 841.341 151.754 844.873 151.754 849.061ZM162.652 849.061V858.37H157.203V849.061C157.203 843.41 155.059 838.617 150.77 834.681C146.481 830.695 141.31 828.702 135.255 828.702H53.668V823.253H135.255C142.823 823.253 149.282 825.776 154.63 830.821C159.978 835.816 162.652 841.896 162.652 849.061ZM173.551 849.061V858.37H168.102V849.061C168.102 840.383 164.898 833.016 158.49 826.961C152.082 820.856 144.337 817.804 135.255 817.804H53.668V812.354H135.255C142.167 812.354 148.575 813.994 154.479 817.274C160.331 820.503 164.973 824.943 168.404 830.594C171.835 836.245 173.551 842.401 173.551 849.061ZM184.449 849.061V858.37H179V849.061C179 843.309 177.84 837.835 175.519 832.638C173.198 827.441 170.095 822.975 166.209 819.242C162.274 815.458 157.607 812.455 152.208 810.235C146.809 808.015 141.158 806.905 135.255 806.905H53.668V801.456H135.255C141.915 801.456 148.272 802.717 154.327 805.24C160.382 807.713 165.629 811.093 170.069 815.382C174.459 819.62 177.94 824.691 180.514 830.594C183.137 836.447 184.449 842.603 184.449 849.061ZM96.5049 692.926L99.4565 697.391C95.4201 700.116 92.2414 703.673 89.9204 708.062C87.549 712.402 86.3633 717.119 86.3633 722.215C86.3633 730.49 89.2897 737.554 95.1426 743.407C100.995 749.26 108.059 752.186 116.334 752.186C124.609 752.186 131.673 749.26 137.525 743.407C143.378 737.554 146.305 730.49 146.305 722.215C146.305 717.119 145.119 712.402 142.748 708.062C140.376 703.673 137.172 700.116 133.136 697.391L136.314 693.001C141.057 696.231 144.816 700.418 147.591 705.565C150.366 710.711 151.754 716.262 151.754 722.215C151.754 727.009 150.82 731.6 148.954 735.99C147.087 740.329 144.564 744.088 141.385 747.267C138.207 750.445 134.448 752.968 130.108 754.835C125.719 756.702 121.127 757.635 116.334 757.635C111.541 757.635 106.974 756.702 102.635 754.835C98.2456 752.968 94.4614 750.445 91.2827 747.267C88.104 744.088 85.5812 740.329 83.7144 735.99C81.8475 731.6 80.9141 727.009 80.9141 722.215C80.9141 716.211 82.3268 710.636 85.1523 705.489C87.9274 700.343 91.7116 696.155 96.5049 692.926ZM90.2988 683.919L93.2505 688.46C87.8013 692.194 83.4873 697.038 80.3086 702.992C77.0794 708.895 75.4648 715.303 75.4648 722.215C75.4648 729.632 77.3065 736.469 80.9897 742.726C84.6226 748.982 89.5672 753.952 95.8237 757.635C102.08 761.268 108.917 763.084 116.334 763.084C123.751 763.084 130.588 761.268 136.844 757.635C143.101 753.952 148.071 748.982 151.754 742.726C155.387 736.469 157.203 729.632 157.203 722.215C157.203 715.303 155.589 708.87 152.359 702.916C149.13 696.962 144.766 692.118 139.266 688.385L142.369 683.919C148.626 688.158 153.57 693.657 157.203 700.418C160.836 707.129 162.652 714.395 162.652 722.215C162.652 730.591 160.584 738.336 156.446 745.45C152.309 752.564 146.683 758.19 139.569 762.328C132.455 766.465 124.71 768.534 116.334 768.534C107.958 768.534 100.213 766.465 93.0991 762.328C85.9849 758.19 80.359 752.564 76.2217 745.45C72.0843 738.336 70.0156 730.591 70.0156 722.215C70.0156 714.395 71.832 707.129 75.4648 700.418C79.0977 693.657 84.0423 688.158 90.2988 683.919ZM84.2441 674.837L87.1958 679.378C80.2329 684.121 74.7332 690.277 70.6968 697.845C66.6099 705.363 64.5664 713.486 64.5664 722.215C64.5664 729.229 65.9287 735.939 68.6533 742.347C71.3779 748.755 75.0612 754.28 79.7031 758.922C84.2946 763.513 89.7943 767.171 96.2021 769.896C102.61 772.621 109.321 773.983 116.334 773.983C123.347 773.983 130.058 772.621 136.466 769.896C142.874 767.171 148.399 763.513 153.041 758.922C157.632 754.28 161.29 748.755 164.015 742.347C166.739 735.939 168.102 729.229 168.102 722.215C168.102 713.436 166.058 705.287 161.971 697.77C157.884 690.252 152.359 684.121 145.396 679.378L148.651 674.989C156.32 680.236 162.4 687.022 166.891 695.348C171.331 703.622 173.551 712.578 173.551 722.215C173.551 732.559 171.003 742.12 165.907 750.899C160.76 759.679 153.797 766.642 145.018 771.788C136.239 776.884 126.677 779.432 116.334 779.432C105.991 779.432 96.4292 776.884 87.6499 771.788C78.8706 766.642 71.9329 759.679 66.8369 750.899C61.6904 742.12 59.1172 732.559 59.1172 722.215C59.1172 712.528 61.3877 703.521 65.9287 695.196C70.4193 686.871 76.5244 680.085 84.2441 674.837ZM78.0381 665.907L80.9897 670.448C72.5636 676.2 65.9035 683.642 61.0093 692.774C56.1151 701.856 53.668 711.67 53.668 722.215C53.668 730.692 55.333 738.815 58.6631 746.585C61.9427 754.305 66.3828 760.965 71.9834 766.566C77.584 772.167 84.2694 776.632 92.0396 779.962C99.7593 783.242 107.857 784.881 116.334 784.881C124.811 784.881 132.934 783.242 140.704 779.962C148.424 776.632 155.084 772.167 160.685 766.566C166.285 760.965 170.75 754.305 174.081 746.585C177.36 738.815 179 730.692 179 722.215C179 711.67 176.528 701.831 171.583 692.699C166.638 683.566 159.953 676.124 151.527 670.372L154.857 665.982C163.939 672.239 171.154 680.312 176.502 690.201C181.8 700.09 184.449 710.762 184.449 722.215C184.449 731.449 182.633 740.278 179 748.705C175.418 757.08 170.599 764.321 164.544 770.426C158.439 776.48 151.199 781.324 142.823 784.957C134.397 788.539 125.567 790.331 116.334 790.331C107.101 790.331 98.2961 788.539 89.9204 784.957C81.4943 781.324 74.2539 776.48 68.1992 770.426C62.0941 764.321 57.2503 757.08 53.668 748.705C50.0352 740.278 48.2188 731.449 48.2188 722.215C48.2188 710.711 50.8929 700.015 56.2412 690.125C61.5895 680.236 68.8551 672.163 78.0381 665.907ZM125.265 578.038C118.806 578.038 113.811 580.031 110.279 584.017C106.747 588.003 104.981 593.276 104.981 599.835C104.981 605.385 106.899 610.153 110.733 614.139C114.568 618.125 119.16 620.118 124.508 620.118C127.535 620.118 130.26 619.715 132.682 618.907C135.053 618.1 137.046 617.015 138.661 615.653C140.225 614.24 141.537 612.575 142.596 610.658C143.605 608.74 144.337 606.747 144.791 604.679C145.245 602.56 145.472 600.314 145.472 597.943C145.472 592.191 144.059 586.944 141.234 582.201H146.683C149.256 587.095 150.543 592.368 150.543 598.019C150.543 601.651 150.064 605.082 149.105 608.312C148.096 611.49 146.607 614.391 144.64 617.015C142.621 619.639 139.897 621.733 136.466 623.297C132.984 624.811 128.998 625.567 124.508 625.567C117.545 625.567 111.642 623.12 106.798 618.226C101.954 613.332 99.5322 607.201 99.5322 599.835C99.5322 591.712 101.828 585.152 106.419 580.157C110.96 575.112 117.242 572.589 125.265 572.589H179V578.038H125.265ZM125.265 561.69H179V567.14H125.265C115.729 567.14 108.16 570.192 102.56 576.297C96.9085 582.403 94.083 590.248 94.083 599.835C94.083 608.715 97.0347 616.132 102.938 622.086C108.841 628.04 116.031 631.017 124.508 631.017C129.654 631.017 134.271 630.134 138.358 628.368C142.445 626.551 145.724 624.104 148.197 621.026C150.669 617.949 152.561 614.518 153.873 610.733C155.134 606.899 155.765 602.862 155.765 598.624C155.765 592.872 154.428 587.398 151.754 582.201H157.506C159.776 587.65 160.912 593.15 160.912 598.7C160.912 603.695 160.155 608.438 158.641 612.928C157.077 617.419 154.832 621.43 151.905 624.962C148.928 628.494 145.094 631.294 140.401 633.363C135.659 635.431 130.361 636.466 124.508 636.466C114.568 636.466 106.117 632.959 99.1538 625.946C92.1405 618.882 88.6338 610.178 88.6338 599.835C88.6338 592.569 90.1222 586.061 93.0991 580.309C96.0256 574.557 100.289 570.016 105.89 566.686C111.49 563.355 117.949 561.69 125.265 561.69ZM125.265 550.792H179V556.241H125.265C116.939 556.241 109.573 558.159 103.165 561.993C96.7067 565.777 91.762 570.974 88.3311 577.584C84.9001 584.194 83.1846 591.611 83.1846 599.835C83.1846 607.656 85.0514 614.795 88.7852 621.253C92.4684 627.712 97.4635 632.783 103.771 636.466C110.077 640.099 116.99 641.915 124.508 641.915C130.966 641.915 136.869 640.729 142.218 638.358C147.516 635.986 151.88 632.808 155.311 628.822C158.742 624.785 161.416 620.219 163.333 615.123C165.2 609.977 166.134 604.603 166.134 599.002C166.134 593.301 164.948 587.7 162.577 582.201H168.102C170.271 587.953 171.356 593.604 171.356 599.154C171.356 607.883 169.388 615.905 165.453 623.221C161.517 630.537 155.942 636.39 148.727 640.78C141.511 645.169 133.438 647.364 124.508 647.364C118.15 647.364 112.096 646.153 106.344 643.731C100.592 641.259 95.6219 637.929 91.4341 633.741C87.2463 629.553 83.9162 624.508 81.4438 618.604C78.9715 612.701 77.7354 606.445 77.7354 599.835C77.7354 590.602 79.7031 582.276 83.6387 574.859C87.5742 567.392 93.1748 561.514 100.44 557.225C107.706 552.936 115.981 550.792 125.265 550.792ZM125.265 539.894H179V545.343H125.265C114.972 545.343 105.789 547.739 97.7158 552.533C89.5924 557.326 83.3359 563.86 78.9463 572.135C74.5062 580.41 72.2861 589.643 72.2861 599.835C72.2861 609.623 74.6323 618.579 79.3247 626.703C84.0171 634.826 90.3745 641.209 98.397 645.851C106.369 650.493 115.073 652.813 124.508 652.813C130.714 652.813 136.617 651.83 142.218 649.862C147.768 647.844 152.637 645.119 156.825 641.688C160.962 638.207 164.544 634.221 167.572 629.73C170.599 625.189 172.895 620.32 174.459 615.123C176.023 609.876 176.805 604.553 176.805 599.154C176.805 593.2 175.67 587.549 173.399 582.201H179C180.968 587.801 181.952 593.553 181.952 599.457C181.952 605.562 181.094 611.515 179.378 617.318C177.663 623.07 175.14 628.418 171.81 633.363C168.43 638.257 164.469 642.571 159.928 646.305C155.336 650.038 149.988 652.965 143.883 655.084C137.778 657.203 131.319 658.263 124.508 658.263C116.687 658.263 109.245 656.799 102.181 653.873C95.0669 650.896 88.9365 646.86 83.79 641.764C78.5931 636.617 74.481 630.411 71.4536 623.146C68.3758 615.829 66.8369 608.059 66.8369 599.835C66.8369 591.459 68.2497 583.588 71.0752 576.222C73.9007 568.855 77.8363 562.498 82.8818 557.149C87.877 551.801 94.0326 547.588 101.349 544.51C108.665 541.432 116.637 539.894 125.265 539.894ZM179 488.277V493.727H53.668V488.277H179ZM179 499.176V504.625H53.668V499.176H179ZM179 510.074V515.523H53.668V510.074H179ZM179 520.973V526.422H53.668V520.973H179ZM116.334 448.468L53.668 416.454V410.399L116.334 442.413L179 410.399V416.454L116.334 448.468ZM116.334 460.653L53.668 428.639V422.584L116.334 454.598L179 422.584V428.639L116.334 460.653ZM116.334 472.838L53.668 440.824V434.769L116.334 466.783L179 434.769V440.824L116.334 472.838ZM116.334 485.099L53.668 453.009V446.954L116.334 479.044L179 446.954V453.009L116.334 485.099ZM179 372.633V378.082H70.0156V372.633H179ZM179 383.531V388.98H70.0156V383.531H179ZM179 394.43V399.879H70.0156V394.43H179ZM151.754 361.734V309.588H157.203V361.734H162.652V309.588H168.102V361.734H173.551V309.588H179V367.184H70.0156V309.588H75.4648V361.734H80.9141V309.588H86.3633V361.734H91.8125V309.588H97.2617V361.734H110.809V312.616H116.258V361.734H121.708V312.616H127.157V361.734H132.606V312.616H138.055V361.734H151.754ZM70.0156 263.8V258.351H179V263.8H70.0156ZM70.0156 274.698V269.249H179V274.698H70.0156ZM70.0156 285.597V280.147H179V285.597H70.0156ZM70.0156 296.495V291.046H179V296.495H70.0156ZM100.213 224.823V219.374H179V224.823H100.213ZM75.4648 246.62H70.0156V164.881H75.4648V246.62ZM86.3633 246.62H80.9141V164.881H86.3633V246.62ZM97.2617 246.62H91.8125V164.881H97.2617V246.62ZM100.213 192.127V186.678H179V192.127H100.213ZM100.213 203.026V197.577H179V203.026H100.213ZM100.213 213.924V208.475H179V213.924H100.213ZM70.0156 43.7876V38.3384H179V43.7876H70.0156ZM70.0156 152.848V147.398H179V152.848H70.0156ZM70.0156 54.686V49.2368H179V54.686H70.0156ZM70.0156 65.5845V60.1353H179V65.5845H70.0156ZM70.0156 76.4829V71.0337H179V76.4829H135.406V114.703H179V120.152H70.0156V114.703H108.16V76.4829H70.0156ZM70.0156 131.051V125.602H179V131.051H70.0156ZM70.0156 141.949V136.5H179V141.949H70.0156ZM129.957 76.4829H124.508V114.703H129.957V76.4829ZM119.059 76.4829H113.609V114.703H119.059V76.4829Z" fill="black"/>
</svg>
